<svg width="2500" height="469" viewBox="0 0 2500 469" fill="none" xmlns="http://www.w3.org/2000/svg">
<g clip-path="url(#clip0_3_18)">
<path d="M2504.25 0H2035.5V469H2504.25V0Z" fill="#DCDCE6"/>
<path d="M0 0.125H468.75V468.875H0V0.125ZM507.812 0.125H976.562V468.875H507.812V0.125ZM1015.62 0.125H1484.38V468.875H1015.62V0.125ZM1523.44 0.125H1992.19V468.875H1523.44V0.125Z" fill="#00B67A"/>
<path d="M234.375 316.043L305.664 297.977L335.449 389.773L234.375 316.043ZM398.437 197.391H272.949L234.375 79.2266L195.801 197.391H70.3125L171.875 270.633L133.301 388.797L234.863 315.555L297.363 270.633L398.437 197.391ZM742.188 316.043L813.477 297.977L843.262 389.773L742.188 316.043ZM906.25 197.391H780.762L742.188 79.2266L703.613 197.391H578.125L679.687 270.633L641.113 388.797L742.676 315.555L805.176 270.633L906.25 197.391ZM1250 316.043L1321.29 297.977L1351.07 389.773L1250 316.043ZM1414.06 197.391H1288.57L1250 79.2266L1211.43 197.391H1085.94L1187.5 270.633L1148.93 388.797L1250.49 315.555L1312.99 270.633L1414.06 197.391ZM1757.81 316.043L1829.1 297.977L1858.89 389.773L1757.81 316.043ZM1921.88 197.391H1796.39L1757.81 79.2266L1719.24 197.391H1593.75L1695.31 270.633L1656.74 388.797L1758.3 315.555L1820.8 270.633L1921.88 197.391ZM2265.63 316.043L2336.91 297.977L2366.7 389.773L2265.63 316.043ZM2429.69 197.391H2304.2L2265.63 79.2266L2227.05 197.391H2101.56L2203.13 270.633L2164.55 388.797L2266.11 315.555L2328.61 270.633L2429.69 197.391Z" fill="white"/>
</g>
<defs>
<clipPath id="clip0_3_18">
<rect width="2500" height="469" fill="white"/>
</clipPath>
</defs>
</svg>
